<?xml version="1.0" standalone="no"?>
<!DOCTYPE svg PUBLIC "-//W3C//DTD SVG 20010904//EN"
 "http://www.w3.org/TR/2001/REC-SVG-20010904/DTD/svg10.dtd">
<svg version="1.0" xmlns="http://www.w3.org/2000/svg"
 width="512.000000pt" height="512.000000pt" viewBox="0 0 512.000000 512.000000"
 preserveAspectRatio="xMidYMid meet">
<metadata>
Created by potrace 1.11, written by Peter Selinger 2001-2013
</metadata>
<g transform="translate(0.000000,512.000000) scale(0.100000,-0.100000)"
fill="#000000" stroke="none">
<path d="M515 3171 c-105 -47 -155 -179 -104 -276 43 -84 131 -132 216 -119
159 24 233 214 132 337 -58 70 -163 95 -244 58z"/>
<path d="M2330 3180 c-152 -32 -282 -164 -347 -355 -32 -91 -42 -159 -41 -285
1 -274 96 -460 283 -550 70 -34 94 -41 171 -46 111 -8 203 12 277 59 149 96
210 243 183 442 -16 116 -99 224 -214 278 -50 23 -82 31 -151 35 -124 7 -201
-20 -287 -100 l-32 -30 5 44 c8 76 43 176 76 220 98 129 268 120 337 -17 l26
-50 99 26 c98 25 100 27 98 54 -6 85 -106 210 -201 252 -64 28 -202 39 -282
23z m222 -626 c34 -18 72 -68 88 -117 26 -82 -12 -210 -75 -251 -79 -52 -216
-42 -285 20 -105 95 -81 284 45 352 61 33 159 31 227 -4z"/>
<path d="M4195 3184 c-86 -20 -116 -31 -161 -59 -162 -103 -193 -321 -64 -452
17 -18 40 -35 51 -38 27 -9 24 -18 -13 -34 -52 -23 -114 -87 -143 -149 -23
-47 -28 -72 -28 -137 -1 -93 12 -146 52 -205 73 -108 216 -170 395 -170 196 1
349 78 413 209 24 48 27 67 28 150 0 83 -3 103 -26 151 -33 68 -70 109 -131
144 l-48 28 48 32 c87 60 125 183 93 303 -23 85 -116 174 -216 209 -48 16
-208 28 -250 18z m191 -214 c96 -60 86 -192 -19 -246 -39 -21 -134 -21 -172
-1 -52 27 -77 62 -83 115 -7 79 33 134 111 152 53 12 125 3 163 -20z m10 -468
c21 -11 46 -28 55 -38 77 -88 61 -221 -34 -281 -38 -24 -51 -27 -132 -27 -117
0 -170 26 -209 101 -29 58 -14 155 32 206 57 63 202 83 288 39z"/>
<path d="M1019 3155 c-1 -5 -2 -53 -3 -105 l-1 -95 291 -5 291 -5 -74 -125
c-40 -69 -76 -132 -80 -141 -5 -8 -97 -168 -206 -355 -109 -186 -197 -343
-197 -349 0 -6 52 -10 132 -9 l132 0 99 179 c54 99 114 209 134 245 36 68 73
135 114 210 14 25 60 108 103 186 l77 141 -3 119 -3 119 -402 0 c-263 0 -403
-3 -404 -10z"/>
<path d="M2940 3058 l0 -108 290 0 c160 0 290 -2 290 -5 0 -3 -47 -86 -104
-183 -57 -97 -113 -193 -124 -213 -11 -19 -90 -156 -176 -304 -86 -147 -154
-270 -151 -274 4 -3 64 -6 133 -6 146 0 124 -14 202 130 23 44 91 168 150 275
108 196 188 341 263 480 l41 74 0 118 c1 65 -1 119 -4 119 -3 1 -186 2 -407 3
l-403 1 0 -107z"/>
<path d="M508 2332 c-125 -64 -156 -215 -65 -319 133 -152 377 -47 362 155 -8
100 -88 177 -194 187 -39 3 -60 -1 -103 -23z"/>
</g>
</svg>
